<svg
  width="37"
  height="20"
  viewBox="0 0 37 20"
  fill="none"
  xmlns="http://www.w3.org/2000/svg"
>

  <rect width="37" height="20" rx="4" fill="#3867FA" />
  <path
    d="M7.46357 6.14746H9.68721C10.6683 6.14746 11.406 6.29427 11.9001 6.58789C12.3942 6.88151 12.6413 7.38102 12.6413 8.08643C12.6413 8.39079 12.5822 8.66471 12.4641 8.9082C12.3495 9.14811 12.1812 9.34684 11.9592 9.50439C11.7372 9.66195 11.4632 9.77116 11.1374 9.83203V9.88574C11.4812 9.93945 11.7855 10.0379 12.0505 10.1812C12.3155 10.3244 12.5231 10.5249 12.6735 10.7827C12.8239 11.0405 12.8991 11.3682 12.8991 11.7656C12.8991 12.249 12.7863 12.6572 12.5607 12.9902C12.3387 13.3232 12.0236 13.5757 11.6154 13.7476C11.2072 13.9159 10.7238 14 10.1652 14H7.46357V6.14746ZM8.37666 9.51514H9.88057C10.5645 9.51514 11.0371 9.40234 11.2985 9.17676C11.5635 8.95117 11.696 8.62174 11.696 8.18848C11.696 7.74089 11.5384 7.41862 11.2233 7.22168C10.9118 7.02474 10.4141 6.92627 9.73018 6.92627H8.37666V9.51514ZM8.37666 10.2832V13.2212H10.0095C10.7077 13.2212 11.2019 13.0851 11.4919 12.813C11.7819 12.5373 11.927 12.1667 11.927 11.7012C11.927 11.404 11.8607 11.1497 11.7282 10.9385C11.5993 10.7272 11.3881 10.5661 11.0944 10.4551C10.8044 10.3405 10.4159 10.2832 9.92891 10.2832H8.37666ZM17.0072 8.00586C17.5085 8.00586 17.9382 8.11686 18.2963 8.33887C18.6544 8.56087 18.9283 8.8724 19.1181 9.27344C19.3078 9.6709 19.4027 10.1364 19.4027 10.6699V11.2231H15.3368C15.3476 11.9142 15.5194 12.4406 15.8524 12.8022C16.1854 13.1639 16.6545 13.3447 17.2597 13.3447C17.6321 13.3447 17.9615 13.3107 18.2479 13.2427C18.5344 13.1746 18.8316 13.0744 19.1396 12.9419V13.7261C18.8424 13.8586 18.5469 13.9552 18.2533 14.0161C17.9633 14.077 17.6195 14.1074 17.2221 14.1074C16.6563 14.1074 16.1622 13.9928 15.7396 13.7637C15.3207 13.5309 14.9949 13.1908 14.7621 12.7432C14.5294 12.2956 14.413 11.7477 14.413 11.0996C14.413 10.4658 14.5186 9.91797 14.7299 9.45605C14.9447 8.99056 15.2455 8.63249 15.6322 8.38184C16.0225 8.13118 16.4809 8.00586 17.0072 8.00586ZM16.9965 8.73633C16.5202 8.73633 16.1407 8.89209 15.8578 9.20361C15.5749 9.51514 15.4066 9.9502 15.3529 10.5088H18.4682C18.4646 10.1579 18.4091 9.84993 18.3017 9.58496C18.1978 9.31641 18.0385 9.10872 17.8236 8.96191C17.6088 8.81152 17.3331 8.73633 16.9965 8.73633ZM23.1188 13.377C23.2656 13.377 23.416 13.3644 23.5699 13.3394C23.7239 13.3143 23.8492 13.2839 23.9459 13.248V13.9409C23.8421 13.9875 23.697 14.0269 23.5108 14.0591C23.3282 14.0913 23.1492 14.1074 22.9737 14.1074C22.6622 14.1074 22.3793 14.0537 22.1251 13.9463C21.8709 13.8353 21.6668 13.6491 21.5128 13.3877C21.3624 13.1263 21.2872 12.7646 21.2872 12.3027V8.81152H20.4493V8.37646L21.2926 8.02734L21.6471 6.74902H22.1842V8.11328H23.9083V8.81152H22.1842V12.2759C22.1842 12.6447 22.2683 12.9204 22.4366 13.103C22.6085 13.2856 22.8359 13.377 23.1188 13.377ZM27.6404 8.0166C28.3423 8.0166 28.8632 8.17415 29.2034 8.48926C29.5436 8.80436 29.7137 9.30745 29.7137 9.99854V14H29.0638L28.8919 13.1299H28.8489C28.6842 13.3447 28.5123 13.5256 28.3333 13.6724C28.1543 13.8156 27.9466 13.9248 27.7103 14C27.4775 14.0716 27.191 14.1074 26.8509 14.1074C26.4928 14.1074 26.1741 14.0448 25.8948 13.9194C25.6191 13.7941 25.4007 13.6043 25.2396 13.3501C25.082 13.0959 25.0032 12.7736 25.0032 12.3833C25.0032 11.7961 25.236 11.3449 25.7015 11.0298C26.167 10.7147 26.8759 10.5428 27.8284 10.5142L28.8436 10.4712V10.1113C28.8436 9.60286 28.7343 9.24658 28.5159 9.04248C28.2975 8.83838 27.9896 8.73633 27.5921 8.73633C27.2841 8.73633 26.9905 8.78109 26.7112 8.87061C26.4319 8.96012 26.167 9.06576 25.9163 9.1875L25.6424 8.51074C25.9074 8.37467 26.2117 8.2583 26.5555 8.16162C26.8992 8.06494 27.2609 8.0166 27.6404 8.0166ZM28.8328 11.0996L27.9358 11.1372C27.2018 11.1659 26.6844 11.2858 26.3836 11.4971C26.0828 11.7083 25.9324 12.0073 25.9324 12.394C25.9324 12.7306 26.0345 12.9795 26.2386 13.1406C26.4427 13.3018 26.713 13.3823 27.0496 13.3823C27.5724 13.3823 28.0003 13.2373 28.3333 12.9473C28.6663 12.6572 28.8328 12.2222 28.8328 11.6421V11.0996Z"
    fill="white"
  />
</svg>
